<svg width="25" height="34" viewBox="0 0 25 34" fill="none" xmlns="http://www.w3.org/2000/svg">
<path d="M13.04 0.813886C12.7994 0.395331 12.2006 0.39533 11.96 0.813886L10.2656 3.76157C10.1468 3.96834 9.94134 4.10944 9.70718 4.14514L6.53173 4.62928C5.99839 4.7106 5.81131 5.39035 6.22666 5.73772L8.59225 7.71609C8.81122 7.89922 8.91418 8.18809 8.86099 8.47007L8.24219 11.7504C8.14437 12.269 8.68364 12.6719 9.14635 12.4259L12.1364 10.8366C12.364 10.7157 12.636 10.7157 12.8636 10.8366L15.8537 12.4259C16.3164 12.6719 16.8557 12.269 16.7579 11.7504L16.1391 8.47007C16.0859 8.18809 16.1888 7.89922 16.4078 7.71609L18.7734 5.73772C19.1888 5.39035 19.0017 4.7106 18.4683 4.62928L15.2929 4.14514C15.0587 4.10944 14.8533 3.96834 14.7344 3.76158L13.04 0.813886Z" fill="#F9CF66"/>
<rect x="9.00003" y="15.5" width="7" height="18" rx="1" fill="#F9CF65"/>
<rect x="3.05176e-05" y="20.5" width="7" height="13" rx="1" fill="#F9CF65"/>
<rect x="18" y="25.5" width="7" height="8" rx="1" fill="#F9CF65"/>
</svg>
