<svg width="45" height="34" viewBox="0 0 45 34" fill="none" xmlns="http://www.w3.org/2000/svg">
<path d="M43.0044 8.37109L23.604 0.996718C23.2668 0.870021 22.885 0.803375 22.4966 0.803375C22.1081 0.803375 21.7264 0.870021 21.3892 0.996718L1.98877 8.37109C1.65186 8.49892 1.37213 8.6828 1.17773 8.90423C0.983319 9.12567 0.881099 9.37685 0.881348 9.6325V24.3651C0.881707 24.6199 0.98426 24.8702 1.17868 25.0907C1.37309 25.3112 1.65251 25.4941 1.98877 25.6211L21.3892 32.9955C21.7259 33.1232 22.1078 33.1905 22.4966 33.1905C22.8854 33.1905 23.2673 33.1232 23.604 32.9955L43.0044 25.6211C43.3419 25.4937 43.6221 25.3099 43.8165 25.0884C44.011 24.8668 44.1129 24.6154 44.1118 24.3597V9.6325C44.1121 9.37685 44.0098 9.12567 43.8154 8.90423C43.621 8.6828 43.3413 8.49892 43.0044 8.37109ZM40.363 22.9527L33.5872 20.3814V13.6108L23.5794 17.3842V25.0012L32.5044 21.6159L39.2802 24.1872L22.4966 30.5535L5.71299 24.1872L12.4888 21.6159L21.4138 25.0012V17.4058L11.406 13.6323V20.3814L4.63018 22.9527V10.2201L21.4138 3.85375V8.99102L12.4888 12.3817L22.4966 16.1552L32.5044 12.3817L23.5794 8.99102V3.85375L40.363 10.2201V22.9527Z" fill="white"/>
</svg>
